<svg width="319" height="495" viewBox="0 0 319 495" fill="none" xmlns="http://www.w3.org/2000/svg">

<g id="Home" clip-path="url(#clip0_354_431)">

<g id="Section1" clip-path="url(#clip1_354_431)">
<g id="Decoration">
<g id="Clip path group">
<mask id="mask0_354_431" style="mask-type:luminance" maskUnits="userSpaceOnUse" x="121" y="40" width="198" height="199">
<g id="f456811175">
<path id="Vector" d="M190.421 40.3689L318.212 107.57L249.191 238.822L121.4 171.621L190.421 40.3689Z" fill="white"/>
</g>
</mask>
<g mask="url(#mask0_354_431)">
<g id="Group">
<path id="Vector_2" d="M288.292 145.451C287.333 116.607 274.247 93.1317 252.969 73.8605C252.139 73.108 251.287 72.3679 249.704 72.7677C249.707 73.5232 249.56 73.9729 249.73 74.2245C250.671 75.6193 251.636 77.0017 252.691 78.3188C264.111 92.5519 272.656 108.289 277.547 125.849C290.642 172.861 252.057 213.595 205.153 202.337C161.709 191.91 142.133 147.326 165.368 111.734C178.726 91.2707 202.643 83.1847 224.111 91.8559C245.275 100.407 259.046 125.159 254.385 147.229C250.733 164.488 239.392 174.915 222.456 178.785C208.014 182.076 195.403 177.674 186.515 165.664C176.166 151.678 176.397 136.511 184.577 121.827C194.699 103.634 218.591 103.658 229.047 121.494C234.112 130.132 233.959 143.597 228.75 148.485C223.796 153.12 212.71 153.151 204.795 148.55C197.059 144.044 194.97 136.039 199.691 128.957C203.726 122.899 209.713 122.886 217.282 129.015C218.406 129.922 219.444 130.59 220.783 129.753C222.026 128.972 222.403 127.728 222.101 126.329C221.264 122.468 218.522 120.256 215.112 118.803C206.851 115.294 196.119 118.551 191.153 125.975C185.995 133.687 186.804 143.426 193.738 150.064C202.413 158.363 212.994 160.596 224.551 158.396C233.198 156.742 238.366 151.062 239.311 142.383C240.135 134.726 238.327 127.493 234.906 120.668C223.73 98.3594 193.295 94.4977 178.67 113.469C163.303 133.386 168.451 164.035 189.697 179.172C209.218 193.069 239.313 187.106 252.807 166.479C264.544 148.526 263.341 129.841 253.581 111.674C243.841 93.5331 228.621 82.0842 207.409 80.973C166.533 78.8355 134.432 124.794 148.835 164.736C158.523 191.613 178.893 206.305 206.155 211.757C250.36 220.598 289.751 188.849 288.305 145.458L288.292 145.451Z" fill="#D4D4D8" fill-opacity="0.2"/>
</g>
</g>
</g>
<path id="Vector_3" d="M90.55 324.818C60.6587 306.376 20.1183 313.015 -3.38367 340.199C-23.5311 363.504 -24.8426 397.752 -5.67423 421.905C12.562 444.878 37.3134 455.835 66.1867 458.146C67.0735 458.215 68.0919 458.329 68.9768 456.833C67.5881 455.17 65.6453 455.105 63.8383 454.657C51.5428 451.629 39.832 447.1 28.7938 440.841C10.2957 430.343 -4.61552 416.722 -9.04971 395C-17.5834 353.11 20.2959 316.732 63.9723 324.76C83.237 328.301 97.274 339.079 105.568 356.832C114.883 376.776 111.122 401.467 96.8633 415.921C84.0838 428.866 63.2633 431.982 43.917 423.843C22.3266 414.767 11.3072 391.43 18.8884 370.831C24.8769 354.549 39.1316 344.609 54.8503 345.758C71.2141 346.954 85.332 359.768 89.1679 376.896C92.3291 391.034 86.3683 403.114 74.0833 407.476C61.8762 411.814 47.5421 405.686 41.1956 393.489C38.6642 388.639 38.9335 384.104 42.3999 379.92C47.0635 374.298 53.1168 371.207 60.4739 371.137C68.1541 371.058 73.7992 376.79 73.7437 384.259C73.6984 390.964 68.9311 394.561 60.5962 394.036C58.9801 393.94 57.5281 393.874 56.9443 395.699C56.3941 397.444 57.4186 398.51 58.7528 399.406C62.0342 401.602 65.5024 401.407 69.023 400.243C77.2723 397.512 82.874 388.818 81.9912 380.15C81.0783 371.166 74.2889 364.208 64.974 363.403C53.9116 362.441 44.7668 366.719 37.4369 374.708C30.834 381.92 30.4828 390.246 36.1597 398.233C41.118 405.21 47.9226 409.81 55.9009 412.643C78.78 420.776 101.82 402.534 98.9246 378.662C95.8857 353.572 70.9188 334.761 46.3485 339.041C21.5937 343.347 5.17788 369.141 11.4117 393.966C20.6897 430.929 71.2634 447.327 100.229 422.757C129.683 397.771 124.547 345.785 90.5567 324.806L90.55 324.818Z" fill="#D4D4D8" fill-opacity="0.2"/>
<g id="Clip path group_2">
<mask id="mask1_354_431" style="mask-type:luminance" maskUnits="userSpaceOnUse" x="-60" y="106" width="147" height="145">
<g id="dba2b381f1">
<path id="Vector_4" d="M-10.3208 106.503L86.9238 157.641L38.1958 250.303L-59.0488 199.165L-10.3208 106.503Z" fill="white"/>
</g>
</mask>
<g mask="url(#mask1_354_431)">
<g id="Group_2">
<path id="Vector_5" d="M45.2281 136.712C28.9742 124.914 11.4023 124.306 -6.49195 132.592C-16.8144 137.37 -25.594 144.231 -32.7642 153.066C-36.1333 157.22 -39.1539 161.581 -42.0795 167.719C-38.4268 166.195 -37.4676 164.325 -36.1947 162.805C-28.1889 153.267 -18.8321 145.339 -7.7561 139.563C24.8233 122.585 60.6808 144.441 59.4705 180.485C58.312 214.846 24.3698 235.177 -4.65476 218.893C-19.0679 210.803 -26.217 195.921 -22.7866 181.164C-19.0876 165.26 -4.58677 153.049 11.2027 152.541C23.2248 152.159 35.0042 159.618 39.9965 170.771C44.3767 180.54 42.6457 191.335 35.4911 198.898C27.6818 207.161 14.5696 210.066 3.86966 205.898C-4.31569 202.713 -8.92754 196.429 -8.91216 188.477C-8.89874 180.637 -4.17085 173.914 3.63022 170.964C8.23935 169.221 13.1607 167.537 17.4635 171.348C21.8108 175.199 22.2961 180.537 21.3281 185.889C20.0843 192.806 14.8785 196.367 8.89103 194.734C3.17347 193.178 1.93538 189.536 4.64093 181.937C4.97349 181.009 5.36225 180.192 4.61767 179.371C3.68917 178.356 2.56138 178.59 1.54126 179.131C-0.401015 180.153 -1.39948 181.865 -1.95887 183.954C-4.20867 192.271 2.40317 201.277 11.2534 201.878C19.9069 202.464 26.6121 195.12 27.1159 184.514C27.659 172.949 21.9702 164.534 13.2607 164.007C1.15128 163.281 -11.6262 174.25 -13.3467 186.858C-15.1075 199.745 -7.25974 211.03 5.94902 213.72C20.5641 216.688 32.8919 212.276 41.6308 200.318C49.5163 189.533 49.8145 177.563 43.1405 166.004C35.6951 153.115 24.128 147.008 9.16379 148.526C-9.95063 150.463 -26.1504 166.417 -28.5756 185.213C-30.8325 202.679 -19.6059 220.401 -1.65637 227.717C30.2283 240.706 62.5621 220.388 65.8635 184.982C67.6853 165.423 61.5933 148.609 45.2215 136.724L45.2281 136.712Z" fill="#D4D4D8" fill-opacity="0.2"/>
</g>
</g>
</g>
</g>
</g>
</g>
<defs>
<clipPath id="clip0_354_431">
<rect width="1440" height="4806" fill="white"/>
</clipPath>
<clipPath id="clip1_354_431">
<rect width="1440" height="720" fill="white" transform="translate(0 -3)"/>
</clipPath>
</defs>
</svg>
